<?xml version="1.0" standalone="no"?>
<!DOCTYPE svg PUBLIC "-//W3C//DTD SVG 20010904//EN"
 "http://www.w3.org/TR/2001/REC-SVG-20010904/DTD/svg10.dtd">
<svg version="1.0" xmlns="http://www.w3.org/2000/svg"
 width="300.000000pt" height="300.000000pt" viewBox="0 0 300.000000 300.000000"
 preserveAspectRatio="xMidYMid meet">
<metadata>
Created by potrace 1.11, written by Peter Selinger 2001-2013
</metadata>
<g transform="translate(0.000000,300.000000) scale(0.100000,-0.100000)"
fill="#000000" stroke="none">
<path d="M2038 2890 c-115 -35 -190 -140 -217 -305 -23 -139 -19 -199 16 -231
23 -21 33 -24 77 -19 79 8 167 31 184 49 12 12 17 39 18 113 4 173 19 334 33
361 20 37 -39 54 -111 32z"/>
<path d="M1626 2725 c-89 -31 -160 -127 -171 -230 -17 -146 -6 -237 31 -261
26 -18 52 -15 152 18 81 26 87 39 75 149 -5 46 -9 139 -9 206 1 68 -2 123 -6
123 -3 0 -12 2 -20 5 -7 2 -30 -2 -52 -10z"/>
<path d="M1284 2536 c-79 -35 -124 -115 -128 -229 -4 -82 14 -165 39 -183 9
-7 26 -11 38 -9 43 9 113 36 136 54 23 18 23 20 12 87 -14 80 -20 135 -25 225
-3 72 -14 80 -72 55z"/>
<path d="M994 2367 c-67 -35 -99 -97 -98 -187 1 -126 25 -190 70 -190 28 0
114 41 133 63 12 16 11 29 -13 117 -20 69 -30 126 -30 168 -1 17 -3 32 -6 33
-3 0 -12 2 -21 4 -8 1 -24 -2 -35 -8z"/>
<path d="M1955 2279 c-55 -17 -109 -33 -120 -36 -72 -20 -432 -148 -570 -202
-112 -44 -244 -108 -282 -137 -17 -13 -35 -24 -39 -24 -3 0 -51 -33 -104 -74
-107 -82 -102 -81 -139 -8 -15 29 -27 42 -39 40 -9 -2 -36 -37 -60 -78 -41
-70 -43 -79 -39 -135 3 -34 19 -97 37 -145 63 -164 331 -692 489 -962 62 -107
62 -107 42 -127 -35 -35 -63 -180 -42 -219 25 -46 71 -58 261 -68 200 -11 596
-4 619 10 3 2 30 7 59 10 102 11 199 45 253 88 29 24 41 59 35 100 -6 34 -1
46 33 97 92 135 97 215 22 325 -69 100 -256 259 -438 372 l-77 49 49 15 c101
32 219 104 275 167 160 179 247 394 264 651 4 68 -23 113 -75 126 -28 7 -41
19 -62 56 -77 136 -169 165 -352 109z"/>
<path d="M744 2158 c-30 -25 -54 -75 -54 -116 0 -42 27 -126 50 -155 18 -22
24 -24 48 -16 15 5 42 23 60 39 l32 30 -41 96 c-22 53 -41 105 -42 115 -2 28
-22 30 -53 7z"/>
</g>
</svg>
